<svg id="Laag_1" data-name="Laag 1" xmlns="http://www.w3.org/2000/svg" viewBox="0 0 100 100"><rect width="100" height="100" style="fill:#3fa9f5"/><path d="M47.39,72c-3.2,0-5.55-.51-7-1.55s-2.25-2.88-2.25-5.55c0-1.2,0-2.24.13-3.12s.17-1.74.25-2.58.12-1.78.12-2.85a2.88,2.88,0,0,0-.6-1.72,4.41,4.41,0,0,0-2.07-1.38,13.55,13.55,0,0,0-4.18-.6v-4.3a13,13,0,0,0,4.18-.6A4.33,4.33,0,0,0,38,46.42a2.91,2.91,0,0,0,.6-1.73q0-1.55-.12-2.82c-.08-.85-.17-1.73-.25-2.63s-.13-1.93-.13-3.1c0-2.7.75-4.55,2.25-5.57s3.85-1.53,7-1.53h3.85v3.9H49.19a12.73,12.73,0,0,0-3.15.3,2.34,2.34,0,0,0-1.52,1,4.46,4.46,0,0,0-.43,2.15c0,1.34,0,2.65.13,4s.12,2.7.12,4.2a6.07,6.07,0,0,1-1.15,4.13,6.47,6.47,0,0,1-3.85,1.72v.2a6.47,6.47,0,0,1,3.85,1.73,6,6,0,0,1,1.15,4.12q0,2.25-.12,4.2c-.08,1.3-.13,2.62-.13,4a4.44,4.44,0,0,0,.43,2.15,2.34,2.34,0,0,0,1.52,1,12.73,12.73,0,0,0,3.15.3h2.05V72Z" style="fill:#fff"/><path d="M50.69,72v-3.9h2.05a12.62,12.62,0,0,0,3.15-.3,2.23,2.23,0,0,0,1.5-1,4.6,4.6,0,0,0,.4-2.15c0-1.33,0-2.65-.1-4s-.1-2.7-.1-4.2a6.09,6.09,0,0,1,1.15-4.12,6.5,6.5,0,0,1,3.85-1.73v-.2a6.5,6.5,0,0,1-3.85-1.72,6.12,6.12,0,0,1-1.15-4.13c0-1.5,0-2.9.1-4.2s.1-2.61.1-4a4.62,4.62,0,0,0-.4-2.15,2.23,2.23,0,0,0-1.5-1,12.62,12.62,0,0,0-3.15-.3H50.69V29h3.85q4.8,0,7.05,1.53c1.5,1,2.25,2.87,2.25,5.57,0,1.17,0,2.2-.12,3.1s-.18,1.78-.28,2.63a24.26,24.26,0,0,0-.15,2.82,2.91,2.91,0,0,0,.6,1.73A4.34,4.34,0,0,0,66,47.79a13.2,13.2,0,0,0,4.2.6v4.3a13.8,13.8,0,0,0-4.2.6,4.41,4.41,0,0,0-2.1,1.38,2.88,2.88,0,0,0-.6,1.72,24.07,24.07,0,0,0,.15,2.85c.1.84.19,1.7.28,2.58s.12,1.92.12,3.12q0,4-2.25,5.55c-1.5,1-3.85,1.55-7.05,1.55Z" style="fill:#fff"/><path d="M32.36,67.16a15.94,15.94,0,0,1-5.78-1,13.51,13.51,0,0,1-4.82-3.18,15.07,15.07,0,0,1-3.3-5.25,20,20,0,0,1-1.2-7.22,19.16,19.16,0,0,1,2.07-9.23,14.57,14.57,0,0,1,5.6-5.85,15.54,15.54,0,0,1,7.88-2,12.17,12.17,0,0,1,5.6,1.27,17.06,17.06,0,0,1,4.15,2.88l-4.05,4.55A9,9,0,0,0,36,40.33a7.54,7.54,0,0,0-3.17-.62A6.9,6.9,0,0,0,28.71,41a8.62,8.62,0,0,0-2.85,3.63,13.62,13.62,0,0,0-1.05,5.6,14.08,14.08,0,0,0,1.05,5.72,8.26,8.26,0,0,0,2.92,3.63,7.64,7.64,0,0,0,4.33,1.25,6.66,6.66,0,0,0,3.25-.8A11,11,0,0,0,39,57.91l4.05,4.45a13.55,13.55,0,0,1-4.7,3.57A14.31,14.31,0,0,1,32.36,67.16Z" style="fill:#fff"/><path d="M63.13,66.17a13.31,13.31,0,0,1-4.7-3.57l4-4.45a10.48,10.48,0,0,0,2.65,2.1,6.66,6.66,0,0,0,3.25.8,7.64,7.64,0,0,0,4.33-1.25,8.15,8.15,0,0,0,2.92-3.63,14.08,14.08,0,0,0,1.05-5.72,13.65,13.65,0,0,0-1.05-5.6,8.62,8.62,0,0,0-2.85-3.63A7,7,0,0,0,68.68,40a7.69,7.69,0,0,0-3.17.62A9.26,9.26,0,0,0,63,42.3l-4-4.55a17.06,17.06,0,0,1,4.15-2.88,12.17,12.17,0,0,1,5.6-1.27,15.45,15.45,0,0,1,7.88,2,14.48,14.48,0,0,1,5.6,5.84,19.16,19.16,0,0,1,2.07,9.23A20,20,0,0,1,83,57.92a14.88,14.88,0,0,1-3.3,5.25,13.51,13.51,0,0,1-4.82,3.18,15.94,15.94,0,0,1-5.78,1.05A14.31,14.31,0,0,1,63.13,66.17Z" style="fill:#fff"/></svg>