<svg data-v-423bf9ae="" xmlns="http://www.w3.org/2000/svg" viewBox="0 0 1346.8126146085629 193" class="fontAboveSlogan"><!----><!----><!----><g data-v-423bf9ae="" id="b32c6335-87eb-4859-aece-24be36394acf" fill="white" transform="matrix(12.121212588270268,0,0,12.121212588270268,-2.887308075300666,-12.121213541944584)"><path d="M11.82 9.99L11.82 9.99Q11.33 10.20 10.83 10.36Q10.33 10.53 9.80 10.65Q9.26 10.77 8.67 10.83Q8.08 10.89 7.40 10.89L7.40 10.89Q5.97 10.89 4.76 10.58Q3.55 10.27 2.68 9.66Q1.81 9.04 1.33 8.11Q0.84 7.18 0.84 5.95L0.84 5.95Q0.84 4.71 1.33 3.78Q1.81 2.86 2.68 2.24Q3.55 1.62 4.76 1.31Q5.97 1.00 7.40 1.00L7.40 1.00Q8.08 1.00 8.67 1.07Q9.26 1.13 9.80 1.25Q10.33 1.37 10.83 1.53Q11.33 1.70 11.82 1.90L11.82 1.90L11.82 4.18Q11.43 3.97 11.00 3.76Q10.57 3.55 10.05 3.39Q9.53 3.22 8.91 3.11Q8.29 3.01 7.51 3.01L7.51 3.01Q6.31 3.01 5.52 3.25Q4.73 3.50 4.26 3.91Q3.79 4.32 3.60 4.85Q3.40 5.38 3.40 5.95L3.40 5.95Q3.40 6.32 3.49 6.69Q3.57 7.05 3.76 7.38Q3.95 7.70 4.26 7.98Q4.57 8.25 5.02 8.45Q5.48 8.65 6.09 8.76Q6.71 8.87 7.51 8.87L7.51 8.87Q8.29 8.87 8.91 8.77Q9.53 8.67 10.05 8.51Q10.57 8.35 11.00 8.14Q11.43 7.93 11.82 7.71L11.82 7.71L11.82 9.99ZM16.72 10.64L14.18 10.64L14.18 1.24L16.72 1.24L16.72 10.64ZM28.92 3.29L24.92 3.29L24.92 10.64L22.39 10.64L22.39 3.29L18.40 3.29L18.40 1.24L28.92 1.24L28.92 3.29ZM39.23 3.37L39.23 3.37Q39.13 3.34 38.93 3.28Q38.74 3.22 38.48 3.16Q38.22 3.10 37.91 3.06Q37.60 3.02 37.27 3.02L37.27 3.02Q36.59 3.02 35.99 3.19Q35.40 3.36 34.89 3.63Q34.38 3.91 33.94 4.26Q33.50 4.61 33.13 4.98L33.13 4.98L33.13 10.64L30.59 10.64L30.59 1.24L33.13 1.24L33.13 2.77Q33.58 2.43 34.07 2.11Q34.55 1.79 35.07 1.54Q35.59 1.30 36.18 1.15Q36.76 1.00 37.41 1.00L37.41 1.00Q37.65 1.00 37.91 1.03Q38.17 1.05 38.41 1.09Q38.65 1.12 38.86 1.16Q39.07 1.20 39.23 1.24L39.23 1.24L39.23 3.37ZM43.37 10.64L40.84 10.64L40.84 1.24L43.37 1.24L43.37 10.64ZM56.66 9.99L56.66 9.99Q56.17 10.20 55.67 10.36Q55.17 10.53 54.64 10.65Q54.11 10.77 53.52 10.83Q52.92 10.89 52.25 10.89L52.25 10.89Q50.81 10.89 49.60 10.58Q48.40 10.27 47.53 9.66Q46.66 9.04 46.17 8.11Q45.68 7.18 45.68 5.95L45.68 5.95Q45.68 4.71 46.17 3.78Q46.66 2.86 47.53 2.24Q48.40 1.62 49.60 1.31Q50.81 1.00 52.25 1.00L52.25 1.00Q52.92 1.00 53.52 1.07Q54.11 1.13 54.64 1.25Q55.17 1.37 55.67 1.53Q56.17 1.70 56.66 1.90L56.66 1.90L56.66 4.18Q56.27 3.97 55.84 3.76Q55.41 3.55 54.89 3.39Q54.37 3.22 53.75 3.11Q53.13 3.01 52.35 3.01L52.35 3.01Q51.15 3.01 50.36 3.25Q49.57 3.50 49.10 3.91Q48.63 4.32 48.44 4.85Q48.25 5.38 48.25 5.95L48.25 5.95Q48.25 6.32 48.33 6.69Q48.41 7.05 48.60 7.38Q48.79 7.70 49.10 7.98Q49.41 8.25 49.87 8.45Q50.33 8.65 50.94 8.76Q51.55 8.87 52.35 8.87L52.35 8.87Q53.13 8.87 53.75 8.77Q54.37 8.67 54.89 8.51Q55.41 8.35 55.84 8.14Q56.27 7.93 56.66 7.71L56.66 7.71L56.66 9.99ZM61.56 1.24L61.56 6.62Q61.56 7.21 61.67 7.58Q61.78 7.95 62.03 8.17Q62.28 8.39 62.67 8.47Q63.06 8.55 63.64 8.55L63.64 8.55L68.45 8.55L68.45 10.64L63.12 10.64Q62.01 10.64 61.23 10.46Q60.46 10.27 59.96 9.90Q59.47 9.52 59.25 8.93Q59.03 8.35 59.03 7.55L59.03 7.55L59.03 1.24L61.56 1.24ZM82.63 5.95L82.63 5.95Q82.63 7.16 82.19 8.08Q81.74 9.01 80.92 9.63Q80.09 10.25 78.91 10.57Q77.73 10.89 76.26 10.89L76.26 10.89Q74.79 10.89 73.61 10.57Q72.42 10.25 71.59 9.63Q70.75 9.01 70.30 8.08Q69.85 7.16 69.85 5.95L69.85 5.95Q69.85 4.74 70.30 3.81Q70.75 2.88 71.59 2.26Q72.42 1.64 73.61 1.32Q74.79 1.00 76.26 1.00L76.26 1.00Q77.73 1.00 78.91 1.32Q80.09 1.64 80.92 2.26Q81.74 2.88 82.19 3.81Q82.63 4.74 82.63 5.95ZM80.07 5.95L80.07 5.95Q80.07 5.42 79.90 4.90Q79.73 4.38 79.31 3.96Q78.88 3.54 78.14 3.28Q77.40 3.02 76.26 3.02L76.26 3.02Q75.50 3.02 74.92 3.14Q74.33 3.26 73.91 3.47Q73.49 3.68 73.20 3.97Q72.91 4.25 72.74 4.58Q72.57 4.90 72.50 5.25Q72.43 5.61 72.43 5.95L72.43 5.95Q72.43 6.30 72.50 6.65Q72.57 7.01 72.74 7.33Q72.91 7.66 73.20 7.94Q73.49 8.22 73.91 8.43Q74.33 8.63 74.92 8.75Q75.50 8.87 76.26 8.87L76.26 8.87Q77.40 8.87 78.14 8.61Q78.88 8.35 79.31 7.94Q79.73 7.52 79.90 7.00Q80.07 6.47 80.07 5.95ZM84.90 1.24L87.44 1.24L87.44 6.54Q87.44 7.06 87.53 7.49Q87.62 7.92 87.86 8.22Q88.09 8.52 88.53 8.69Q88.96 8.86 89.65 8.86L89.65 8.86Q90.17 8.86 90.74 8.72Q91.31 8.57 91.87 8.33Q92.43 8.09 92.94 7.78Q93.45 7.47 93.85 7.14L93.85 7.14L93.85 1.24L96.38 1.24L96.38 10.64L93.85 10.64L93.85 9.35Q93.37 9.63 92.83 9.90Q92.29 10.18 91.68 10.40Q91.08 10.62 90.39 10.76Q89.71 10.90 88.95 10.90L88.95 10.90Q88.00 10.90 87.25 10.67Q86.50 10.45 85.98 10.02Q85.46 9.60 85.18 9.01Q84.90 8.41 84.90 7.67L84.90 7.67L84.90 1.24ZM110.82 5.93L110.82 5.93Q110.82 6.84 110.63 7.54Q110.43 8.24 110.07 8.76Q109.71 9.28 109.21 9.64Q108.71 10.00 108.09 10.22Q107.47 10.44 106.76 10.54Q106.05 10.64 105.28 10.64L105.28 10.64L99.32 10.64L99.32 1.24L105.27 1.24Q106.04 1.24 106.75 1.34Q107.46 1.44 108.08 1.66Q108.70 1.88 109.20 2.24Q109.71 2.60 110.07 3.12Q110.43 3.64 110.63 4.34Q110.82 5.04 110.82 5.93ZM108.27 5.93L108.27 5.93Q108.27 5.26 108.09 4.76Q107.92 4.26 107.53 3.93Q107.15 3.61 106.52 3.45Q105.90 3.29 105.01 3.29L105.01 3.29L101.86 3.29L101.86 8.59L105.01 8.59Q105.90 8.59 106.52 8.43Q107.15 8.27 107.53 7.94Q107.92 7.61 108.09 7.11Q108.27 6.61 108.27 5.93Z"></path></g><!----><!----><g data-v-423bf9ae="" id="de3c663b-c652-4a93-9f7d-7fbfbc1e2d4f" fill="white" transform="matrix(4.687500279396789,0,0,4.687500279396789,-1.1719018565524948,106.37499683350319)"><path d="M8.32 8.74L7.22 15.68L5.21 15.68L4.37 9.24L4.20 9.24L3.36 15.68L1.34 15.68L0.25 8.74L1.37 8.74L2.30 15.18L2.46 15.18L3.28 8.74L5.29 8.74L6.10 15.18L6.27 15.18L7.20 8.74L8.32 8.74ZM23.18 12.54L17.58 12.54Q17.63 13.58 18.23 14.21Q18.83 14.84 19.91 14.84L19.91 14.84Q20.40 14.84 20.76 14.73Q21.13 14.62 21.38 14.42Q21.64 14.22 21.80 13.96Q21.97 13.71 22.06 13.41L22.06 13.41L23.10 13.69Q22.81 14.66 22.02 15.27Q21.22 15.88 19.88 15.88L19.88 15.88Q19.14 15.88 18.52 15.62Q17.89 15.36 17.44 14.88Q17.00 14.41 16.74 13.75Q16.49 13.09 16.49 12.29L16.49 12.29L16.49 11.96Q16.49 11.23 16.75 10.60Q17.01 9.97 17.47 9.51Q17.93 9.06 18.56 8.80Q19.18 8.54 19.91 8.54L19.91 8.54Q20.76 8.54 21.38 8.86Q22.01 9.17 22.41 9.63Q22.81 10.09 23.00 10.64Q23.18 11.19 23.18 11.65L23.18 11.65L23.18 12.54ZM19.91 9.58L19.91 9.58Q19.45 9.58 19.05 9.72Q18.65 9.87 18.35 10.14Q18.05 10.40 17.86 10.76Q17.67 11.12 17.61 11.54L17.61 11.54L22.09 11.54Q22.06 11.09 21.88 10.72Q21.69 10.36 21.38 10.11Q21.08 9.86 20.70 9.72Q20.31 9.58 19.91 9.58ZM54.60 10.33L54.60 15.68L53.51 15.68L53.51 10.70Q53.51 10.21 53.28 9.89Q53.06 9.58 52.57 9.58L52.57 9.58Q52.11 9.58 51.82 9.92Q51.53 10.26 51.53 10.98L51.53 10.98L51.53 15.68L50.44 15.68L50.44 10.64Q50.44 10.18 50.19 9.88Q49.94 9.58 49.52 9.58L49.52 9.58Q49.01 9.58 48.74 9.94Q48.47 10.30 48.47 10.89L48.47 10.89L48.47 15.68L47.38 15.68L47.38 8.74L48.47 8.74L48.47 9.49L48.64 9.49Q48.82 9.00 49.17 8.77Q49.52 8.54 49.99 8.54L49.99 8.54Q50.50 8.54 50.83 8.81Q51.16 9.07 51.28 9.49L51.28 9.49L51.45 9.49Q51.93 8.54 52.96 8.54L52.96 8.54Q53.75 8.54 54.17 9.04Q54.60 9.53 54.60 10.33L54.60 10.33ZM68.53 14.59L68.53 14.50L68.36 14.50Q68.03 15.20 67.43 15.54Q66.84 15.88 66.18 15.88L66.18 15.88Q65.49 15.88 64.90 15.64Q64.32 15.41 63.88 14.96Q63.43 14.50 63.18 13.85Q62.93 13.19 62.93 12.32L62.93 12.32L62.93 12.10Q62.93 11.24 63.18 10.58Q63.43 9.93 63.88 9.47Q64.32 9.02 64.90 8.78Q65.49 8.54 66.15 8.54L66.15 8.54Q66.86 8.54 67.44 8.86Q68.03 9.17 68.36 9.83L68.36 9.83L68.53 9.83L68.53 8.74L69.62 8.74L69.62 14.25Q69.62 14.67 70 14.67L70 14.67L70.35 14.67L70.35 15.68L69.61 15.68Q69.13 15.68 68.83 15.37Q68.53 15.06 68.53 14.59L68.53 14.59ZM66.29 14.84L66.29 14.84Q66.78 14.84 67.19 14.66Q67.61 14.48 67.90 14.14Q68.19 13.80 68.36 13.33Q68.53 12.87 68.53 12.29L68.53 12.29L68.53 12.12Q68.53 11.56 68.36 11.09Q68.19 10.63 67.89 10.29Q67.59 9.95 67.18 9.77Q66.77 9.58 66.29 9.58L66.29 9.58Q65.80 9.58 65.39 9.76Q64.99 9.94 64.69 10.27Q64.39 10.60 64.22 11.07Q64.05 11.54 64.05 12.10L64.05 12.10L64.05 12.32Q64.05 13.51 64.67 14.17Q65.30 14.84 66.29 14.84ZM84.43 15.68L84.43 14.62L84.27 14.62Q84.10 14.94 83.84 15.18Q83.58 15.41 83.28 15.57Q82.98 15.72 82.64 15.80Q82.31 15.88 82.00 15.88L82.00 15.88Q81.30 15.88 80.70 15.64Q80.09 15.40 79.64 14.95Q79.18 14.50 78.92 13.84Q78.67 13.17 78.67 12.32L78.67 12.32L78.67 12.10Q78.67 11.26 78.93 10.59Q79.20 9.93 79.65 9.47Q80.09 9.02 80.70 8.78Q81.30 8.54 81.97 8.54L81.97 8.54Q82.68 8.54 83.31 8.86Q83.93 9.17 84.27 9.83L84.27 9.83L84.43 9.83L84.43 5.88L85.53 5.88L85.53 15.68L84.43 15.68ZM82.11 14.84L82.11 14.84Q82.60 14.84 83.02 14.66Q83.44 14.48 83.76 14.14Q84.07 13.80 84.25 13.33Q84.43 12.87 84.43 12.29L84.43 12.29L84.43 12.12Q84.43 11.56 84.25 11.09Q84.07 10.63 83.76 10.29Q83.44 9.95 83.01 9.77Q82.59 9.58 82.11 9.58L82.11 9.58Q81.62 9.58 81.19 9.76Q80.77 9.94 80.45 10.28Q80.14 10.61 79.96 11.07Q79.79 11.54 79.79 12.10L79.79 12.10L79.79 12.32Q79.79 12.91 79.96 13.37Q80.14 13.83 80.45 14.16Q80.77 14.49 81.19 14.66Q81.61 14.84 82.11 14.84ZM101.02 12.54L95.42 12.54Q95.47 13.58 96.07 14.21Q96.67 14.84 97.75 14.84L97.75 14.84Q98.24 14.84 98.60 14.73Q98.97 14.62 99.22 14.42Q99.48 14.22 99.64 13.96Q99.81 13.71 99.90 13.41L99.90 13.41L100.94 13.69Q100.65 14.66 99.86 15.27Q99.06 15.88 97.72 15.88L97.72 15.88Q96.98 15.88 96.36 15.62Q95.73 15.36 95.28 14.88Q94.84 14.41 94.58 13.75Q94.33 13.09 94.33 12.29L94.33 12.29L94.33 11.96Q94.33 11.23 94.59 10.60Q94.85 9.97 95.31 9.51Q95.77 9.06 96.40 8.80Q97.02 8.54 97.75 8.54L97.75 8.54Q98.60 8.54 99.22 8.86Q99.85 9.17 100.25 9.63Q100.65 10.09 100.84 10.64Q101.02 11.19 101.02 11.65L101.02 11.65L101.02 12.54ZM97.75 9.58L97.75 9.58Q97.29 9.58 96.89 9.72Q96.49 9.87 96.19 10.14Q95.89 10.40 95.70 10.76Q95.51 11.12 95.45 11.54L95.45 11.54L99.93 11.54Q99.90 11.09 99.72 10.72Q99.53 10.36 99.22 10.11Q98.92 9.86 98.54 9.72Q98.15 9.58 97.75 9.58ZM131.17 12.96L132.26 13.22Q132.15 13.79 131.87 14.28Q131.60 14.77 131.18 15.13Q130.76 15.48 130.20 15.68Q129.64 15.88 128.95 15.88L128.95 15.88Q128.23 15.88 127.58 15.64Q126.92 15.40 126.43 14.95Q125.94 14.49 125.66 13.83Q125.37 13.17 125.37 12.32L125.37 12.32L125.37 12.15Q125.37 11.31 125.66 10.64Q125.94 9.97 126.43 9.51Q126.92 9.04 127.58 8.79Q128.23 8.54 128.95 8.54L128.95 8.54Q129.61 8.54 130.17 8.74Q130.73 8.93 131.16 9.29Q131.59 9.65 131.86 10.14Q132.13 10.63 132.23 11.20L132.23 11.20L131.14 11.45Q131.10 11.09 130.94 10.74Q130.77 10.40 130.50 10.14Q130.23 9.88 129.84 9.73Q129.44 9.58 128.93 9.58L128.93 9.58Q128.42 9.58 127.98 9.77Q127.54 9.95 127.20 10.30Q126.87 10.64 126.68 11.12Q126.49 11.59 126.49 12.15L126.49 12.15L126.49 12.32Q126.49 12.91 126.68 13.38Q126.87 13.85 127.20 14.17Q127.54 14.49 127.99 14.66Q128.44 14.84 128.95 14.84L128.95 14.84Q129.47 14.84 129.86 14.68Q130.24 14.52 130.51 14.26Q130.79 14 130.95 13.66Q131.11 13.33 131.17 12.96L131.17 12.96ZM147.88 12.12L147.88 12.29Q147.88 13.16 147.59 13.82Q147.31 14.49 146.83 14.95Q146.36 15.40 145.72 15.64Q145.08 15.88 144.40 15.88L144.40 15.88Q143.70 15.88 143.07 15.64Q142.44 15.40 141.96 14.95Q141.48 14.49 141.20 13.82Q140.91 13.16 140.91 12.29L140.91 12.29L140.91 12.12Q140.91 11.27 141.20 10.61Q141.48 9.94 141.97 9.48Q142.45 9.02 143.08 8.78Q143.71 8.54 144.40 8.54L144.40 8.54Q145.08 8.54 145.71 8.78Q146.34 9.02 146.82 9.48Q147.31 9.94 147.59 10.61Q147.88 11.27 147.88 12.12L147.88 12.12ZM144.40 14.84L144.40 14.84Q144.90 14.84 145.33 14.66Q145.75 14.49 146.08 14.15Q146.40 13.82 146.58 13.35Q146.76 12.88 146.76 12.29L146.76 12.29L146.76 12.12Q146.76 11.56 146.58 11.09Q146.40 10.63 146.08 10.29Q145.75 9.95 145.32 9.77Q144.89 9.58 144.40 9.58L144.40 9.58Q143.91 9.58 143.47 9.77Q143.04 9.95 142.72 10.29Q142.39 10.63 142.21 11.09Q142.03 11.56 142.03 12.12L142.03 12.12L142.03 12.29Q142.03 12.88 142.21 13.35Q142.39 13.82 142.72 14.15Q143.04 14.49 143.47 14.66Q143.89 14.84 144.40 14.84ZM162.27 15.68L162.27 14.62L162.11 14.62Q161.94 14.94 161.68 15.18Q161.42 15.41 161.12 15.57Q160.82 15.72 160.48 15.80Q160.15 15.88 159.84 15.88L159.84 15.88Q159.14 15.88 158.54 15.64Q157.93 15.40 157.48 14.95Q157.02 14.50 156.77 13.84Q156.51 13.17 156.51 12.32L156.51 12.32L156.51 12.10Q156.51 11.26 156.77 10.59Q157.04 9.93 157.49 9.47Q157.93 9.02 158.54 8.78Q159.14 8.54 159.81 8.54L159.81 8.54Q160.52 8.54 161.15 8.86Q161.77 9.17 162.11 9.83L162.11 9.83L162.27 9.83L162.27 5.88L163.37 5.88L163.37 15.68L162.27 15.68ZM159.95 14.84L159.95 14.84Q160.44 14.84 160.86 14.66Q161.28 14.48 161.59 14.14Q161.91 13.80 162.09 13.33Q162.27 12.87 162.27 12.29L162.27 12.29L162.27 12.12Q162.27 11.56 162.09 11.09Q161.91 10.63 161.59 10.29Q161.28 9.95 160.85 9.77Q160.43 9.58 159.95 9.58L159.95 9.58Q159.46 9.58 159.03 9.76Q158.61 9.94 158.29 10.28Q157.98 10.61 157.80 11.07Q157.63 11.54 157.63 12.10L157.63 12.10L157.63 12.32Q157.63 12.91 157.80 13.37Q157.98 13.83 158.29 14.16Q158.61 14.49 159.03 14.66Q159.45 14.84 159.95 14.84ZM174.62 6.66L174.62 6.66Q174.62 6.26 174.91 5.97Q175.20 5.68 175.60 5.68L175.60 5.68Q176.01 5.68 176.30 5.97Q176.58 6.26 176.58 6.66L176.58 6.66Q176.58 7.07 176.30 7.36Q176.01 7.64 175.60 7.64L175.60 7.64Q175.20 7.64 174.91 7.36Q174.62 7.07 174.62 6.66ZM172.63 15.68L172.63 14.67L175.07 14.67L175.07 9.74L172.89 9.74L172.89 8.74L176.16 8.74L176.16 14.67L178.43 14.67L178.43 15.68L172.63 15.68ZM189.13 12.07L189.13 15.68L188.03 15.68L188.03 8.74L189.13 8.74L189.13 9.91L189.29 9.91Q189.94 8.54 191.53 8.54L191.53 8.54Q192.74 8.54 193.45 9.29Q194.17 10.04 194.17 11.54L194.17 11.54L194.17 15.68L193.07 15.68L193.07 11.76Q193.07 10.67 192.58 10.12Q192.09 9.58 191.25 9.58L191.25 9.58Q190.26 9.58 189.69 10.25Q189.13 10.93 189.13 12.07L189.13 12.07ZM208.88 17.05L208.88 14.62L208.71 14.62Q208.38 15.25 207.80 15.56Q207.21 15.88 206.53 15.88L206.53 15.88Q205.83 15.88 205.21 15.64Q204.60 15.40 204.13 14.95Q203.66 14.50 203.39 13.84Q203.11 13.17 203.11 12.32L203.11 12.32L203.11 12.10Q203.11 11.26 203.39 10.59Q203.67 9.93 204.13 9.47Q204.60 9.02 205.21 8.78Q205.83 8.54 206.50 8.54L206.50 8.54Q207.26 8.54 207.82 8.87Q208.39 9.20 208.71 9.83L208.71 9.83L208.88 9.83L208.88 8.74L209.97 8.74L209.97 17.39Q209.97 17.86 209.67 18.17Q209.37 18.48 208.89 18.48L208.89 18.48L204.37 18.48L204.37 17.47L208.50 17.47Q208.88 17.47 208.88 17.05L208.88 17.05ZM206.56 14.84L206.56 14.84Q207.05 14.84 207.47 14.66Q207.89 14.48 208.20 14.14Q208.52 13.80 208.70 13.33Q208.88 12.87 208.88 12.29L208.88 12.29L208.88 12.12Q208.88 11.56 208.70 11.09Q208.52 10.63 208.20 10.29Q207.89 9.95 207.46 9.77Q207.03 9.58 206.56 9.58L206.56 9.58Q206.07 9.58 205.64 9.76Q205.21 9.94 204.90 10.28Q204.58 10.61 204.41 11.07Q204.23 11.54 204.23 12.10L204.23 12.10L204.23 12.32Q204.23 12.91 204.41 13.37Q204.58 13.83 204.90 14.16Q205.21 14.49 205.63 14.66Q206.05 14.84 206.56 14.84ZM241.14 12.54L235.54 12.54Q235.58 13.58 236.18 14.21Q236.78 14.84 237.86 14.84L237.86 14.84Q238.35 14.84 238.71 14.73Q239.08 14.62 239.34 14.42Q239.60 14.22 239.76 13.96Q239.92 13.71 240.02 13.41L240.02 13.41L241.05 13.69Q240.76 14.66 239.97 15.27Q239.18 15.88 237.83 15.88L237.83 15.88Q237.09 15.88 236.47 15.62Q235.84 15.36 235.40 14.88Q234.95 14.41 234.70 13.75Q234.44 13.09 234.44 12.29L234.44 12.29L234.44 11.96Q234.44 11.23 234.70 10.60Q234.96 9.97 235.42 9.51Q235.89 9.06 236.51 8.80Q237.13 8.54 237.86 8.54L237.86 8.54Q238.71 8.54 239.34 8.86Q239.96 9.17 240.36 9.63Q240.76 10.09 240.95 10.64Q241.14 11.19 241.14 11.65L241.14 11.65L241.14 12.54ZM237.86 9.58L237.86 9.58Q237.40 9.58 237.00 9.72Q236.60 9.87 236.30 10.14Q236.00 10.40 235.81 10.76Q235.62 11.12 235.56 11.54L235.56 11.54L240.04 11.54Q240.02 11.09 239.83 10.72Q239.64 10.36 239.34 10.11Q239.04 9.86 238.65 9.72Q238.27 9.58 237.86 9.58ZM255.35 14.59L255.35 14.50L255.18 14.50Q254.84 15.20 254.25 15.54Q253.65 15.88 252.99 15.88L252.99 15.88Q252.31 15.88 251.72 15.64Q251.13 15.41 250.69 14.96Q250.25 14.50 250.00 13.85Q249.75 13.19 249.75 12.32L249.75 12.32L249.75 12.10Q249.75 11.24 250.00 10.58Q250.25 9.93 250.69 9.47Q251.13 9.02 251.72 8.78Q252.31 8.54 252.97 8.54L252.97 8.54Q253.68 8.54 254.26 8.86Q254.84 9.17 255.18 9.83L255.18 9.83L255.35 9.83L255.35 8.74L256.44 8.74L256.44 14.25Q256.44 14.67 256.82 14.67L256.82 14.67L257.17 14.67L257.17 15.68L256.42 15.68Q255.95 15.68 255.65 15.37Q255.35 15.06 255.35 14.59L255.35 14.59ZM253.11 14.84L253.11 14.84Q253.60 14.84 254.01 14.66Q254.42 14.48 254.72 14.14Q255.01 13.80 255.18 13.33Q255.35 12.87 255.35 12.29L255.35 12.29L255.35 12.12Q255.35 11.56 255.18 11.09Q255.01 10.63 254.71 10.29Q254.41 9.95 254.00 9.77Q253.58 9.58 253.11 9.58L253.11 9.58Q252.62 9.58 252.21 9.76Q251.80 9.94 251.50 10.27Q251.20 10.60 251.03 11.07Q250.87 11.54 250.87 12.10L250.87 12.10L250.87 12.32Q250.87 13.51 251.49 14.17Q252.11 14.84 253.11 14.84ZM267.32 10.53L267.32 10.53Q267.32 11.03 267.74 11.30Q268.17 11.56 269.30 11.65L269.30 11.65Q270.52 11.75 271.16 12.23Q271.80 12.71 271.80 13.64L271.80 13.64L271.80 13.72Q271.80 14.22 271.59 14.62Q271.39 15.02 271.03 15.30Q270.68 15.58 270.17 15.73Q269.65 15.88 269.05 15.88L269.05 15.88Q268.24 15.88 267.66 15.66Q267.08 15.44 266.69 15.08Q266.31 14.73 266.11 14.27Q265.92 13.82 265.89 13.36L265.89 13.36L266.92 13.10Q266.99 13.90 267.54 14.38Q268.09 14.87 269.00 14.87L269.00 14.87Q269.77 14.87 270.24 14.57Q270.70 14.27 270.70 13.72L270.70 13.72Q270.70 13.13 270.24 12.88Q269.78 12.63 268.74 12.56L268.74 12.56Q267.54 12.47 266.90 12.00Q266.25 11.52 266.25 10.61L266.25 10.61L266.25 10.53Q266.25 10.04 266.46 9.67Q266.67 9.30 267.03 9.04Q267.39 8.79 267.83 8.67Q268.28 8.54 268.77 8.54L268.77 8.54Q269.46 8.54 269.98 8.73Q270.49 8.92 270.84 9.22Q271.19 9.52 271.38 9.91Q271.57 10.30 271.63 10.70L271.63 10.70L270.59 10.95Q270.52 10.28 270.05 9.90Q269.58 9.52 268.83 9.52L268.83 9.52Q268.53 9.52 268.26 9.58Q267.99 9.65 267.78 9.77Q267.57 9.90 267.44 10.09Q267.32 10.28 267.32 10.53ZM286.48 17.05L286.48 14.42L286.31 14.42Q285.98 15.09 285.43 15.48Q284.89 15.88 284.05 15.88L284.05 15.88Q283.47 15.88 282.99 15.69Q282.51 15.50 282.16 15.12Q281.82 14.74 281.63 14.18Q281.44 13.62 281.44 12.88L281.44 12.88L281.44 8.74L282.53 8.74L282.53 12.74Q282.53 13.83 282.98 14.34Q283.43 14.84 284.35 14.84L284.35 14.84Q285.35 14.84 285.92 14.16Q286.48 13.48 286.48 12.35L286.48 12.35L286.48 8.74L287.57 8.74L287.57 17.39Q287.57 17.86 287.27 18.17Q286.97 18.48 286.50 18.48L286.50 18.48L282.53 18.48L282.53 17.47L286.10 17.47Q286.48 17.47 286.48 17.05L286.48 17.05Z"></path></g></svg>