<svg viewBox="0 0 100 100" fill="none" xmlns="http://www.w3.org/2000/svg">
  <defs>
    <linearGradient id="primaryGradient" x1="0%" y1="0%" x2="100%" y2="100%">
      <stop offset="0%" stop-color="#0EA5E9" />
      <stop offset="100%" stop-color="#0284C7" />
    </linearGradient>
    <linearGradient id="accentGradient" x1="0%" y1="0%" x2="100%" y2="100%">
      <stop offset="0%" stop-color="#22D3EE" />
      <stop offset="100%" stop-color="#06B6D4" />
    </linearGradient>
  </defs>
  
  <!-- Modern C Letter with Cloud Integration -->
  <path
    d="M50 15 C65 15 78 25 82 38 L70 42 C68 32 60 25 50 25 C38 25 28 35 28 50 C28 65 38 75 50 75 C60 75 68 68 70 58 L82 62 C78 75 65 85 50 85 C32 85 18 71 18 50 C18 29 32 15 50 15 Z"
    fill="url(#primaryGradient)"
  />
  
  <!-- Modern Server Stack Dots -->
  <circle cx="72" cy="35" r="4" fill="url(#accentGradient)" />
  <circle cx="72" cy="50" r="4" fill="url(#accentGradient)" />
  <circle cx="72" cy="65" r="4" fill="url(#accentGradient)" />
</svg>
