<svg data-v-423bf9ae="" xmlns="http://www.w3.org/2000/svg" viewBox="0 0 666.5455005740349 60" class="font"><!----><!----><!----><g data-v-423bf9ae="" id="780819d8-d8d3-49f9-9cee-b56f2553626b" fill="black" transform="matrix(6.060606294135134,0,0,6.060606294135134,-5.090909041102634,-6.06060724780945)"><path d="M11.82 9.99L11.82 9.99Q11.33 10.20 10.83 10.36Q10.33 10.53 9.80 10.65Q9.26 10.77 8.67 10.83Q8.08 10.89 7.40 10.89L7.40 10.89Q5.97 10.89 4.76 10.58Q3.55 10.27 2.68 9.66Q1.81 9.04 1.33 8.11Q0.84 7.18 0.84 5.95L0.84 5.95Q0.84 4.71 1.33 3.78Q1.81 2.86 2.68 2.24Q3.55 1.62 4.76 1.31Q5.97 1.00 7.40 1.00L7.40 1.00Q8.08 1.00 8.67 1.07Q9.26 1.13 9.80 1.25Q10.33 1.37 10.83 1.53Q11.33 1.70 11.82 1.90L11.82 1.90L11.82 4.18Q11.43 3.97 11.00 3.76Q10.57 3.55 10.05 3.39Q9.53 3.22 8.91 3.11Q8.29 3.01 7.51 3.01L7.51 3.01Q6.31 3.01 5.52 3.25Q4.73 3.50 4.26 3.91Q3.79 4.32 3.60 4.85Q3.40 5.38 3.40 5.95L3.40 5.95Q3.40 6.32 3.49 6.69Q3.57 7.05 3.76 7.38Q3.95 7.70 4.26 7.98Q4.57 8.25 5.02 8.45Q5.48 8.65 6.09 8.76Q6.71 8.87 7.51 8.87L7.51 8.87Q8.29 8.87 8.91 8.77Q9.53 8.67 10.05 8.51Q10.57 8.35 11.00 8.14Q11.43 7.93 11.82 7.71L11.82 7.71L11.82 9.99ZM16.72 10.64L14.18 10.64L14.18 1.24L16.72 1.24L16.72 10.64ZM28.92 3.29L24.92 3.29L24.92 10.64L22.39 10.64L22.39 3.29L18.40 3.29L18.40 1.24L28.92 1.24L28.92 3.29ZM39.23 3.37L39.23 3.37Q39.13 3.34 38.93 3.28Q38.74 3.22 38.48 3.16Q38.22 3.10 37.91 3.06Q37.60 3.02 37.27 3.02L37.27 3.02Q36.59 3.02 35.99 3.19Q35.40 3.36 34.89 3.63Q34.38 3.91 33.94 4.26Q33.50 4.61 33.13 4.98L33.13 4.98L33.13 10.64L30.59 10.64L30.59 1.24L33.13 1.24L33.13 2.77Q33.58 2.43 34.07 2.11Q34.55 1.79 35.07 1.54Q35.59 1.30 36.18 1.15Q36.76 1.00 37.41 1.00L37.41 1.00Q37.65 1.00 37.91 1.03Q38.17 1.05 38.41 1.09Q38.65 1.12 38.86 1.16Q39.07 1.20 39.23 1.24L39.23 1.24L39.23 3.37ZM43.37 10.64L40.84 10.64L40.84 1.24L43.37 1.24L43.37 10.64ZM56.66 9.99L56.66 9.99Q56.17 10.20 55.67 10.36Q55.17 10.53 54.64 10.65Q54.11 10.77 53.52 10.83Q52.92 10.89 52.25 10.89L52.25 10.89Q50.81 10.89 49.60 10.58Q48.40 10.27 47.53 9.66Q46.66 9.04 46.17 8.11Q45.68 7.18 45.68 5.95L45.68 5.95Q45.68 4.71 46.17 3.78Q46.66 2.86 47.53 2.24Q48.40 1.62 49.60 1.31Q50.81 1.00 52.25 1.00L52.25 1.00Q52.92 1.00 53.52 1.07Q54.11 1.13 54.64 1.25Q55.17 1.37 55.67 1.53Q56.17 1.70 56.66 1.90L56.66 1.90L56.66 4.18Q56.27 3.97 55.84 3.76Q55.41 3.55 54.89 3.39Q54.37 3.22 53.75 3.11Q53.13 3.01 52.35 3.01L52.35 3.01Q51.15 3.01 50.36 3.25Q49.57 3.50 49.10 3.91Q48.63 4.32 48.44 4.85Q48.25 5.38 48.25 5.95L48.25 5.95Q48.25 6.32 48.33 6.69Q48.41 7.05 48.60 7.38Q48.79 7.70 49.10 7.98Q49.41 8.25 49.87 8.45Q50.33 8.65 50.94 8.76Q51.55 8.87 52.35 8.87L52.35 8.87Q53.13 8.87 53.75 8.77Q54.37 8.67 54.89 8.51Q55.41 8.35 55.84 8.14Q56.27 7.93 56.66 7.71L56.66 7.71L56.66 9.99ZM61.56 1.24L61.56 6.62Q61.56 7.21 61.67 7.58Q61.78 7.95 62.03 8.17Q62.28 8.39 62.67 8.47Q63.06 8.55 63.64 8.55L63.64 8.55L68.45 8.55L68.45 10.64L63.12 10.64Q62.01 10.64 61.23 10.46Q60.46 10.27 59.96 9.90Q59.47 9.52 59.25 8.93Q59.03 8.35 59.03 7.55L59.03 7.55L59.03 1.24L61.56 1.24ZM82.63 5.95L82.63 5.95Q82.63 7.16 82.19 8.08Q81.74 9.01 80.92 9.63Q80.09 10.25 78.91 10.57Q77.73 10.89 76.26 10.89L76.26 10.89Q74.79 10.89 73.61 10.57Q72.42 10.25 71.59 9.63Q70.75 9.01 70.30 8.08Q69.85 7.16 69.85 5.95L69.85 5.95Q69.85 4.74 70.30 3.81Q70.75 2.88 71.59 2.26Q72.42 1.64 73.61 1.32Q74.79 1.00 76.26 1.00L76.26 1.00Q77.73 1.00 78.91 1.32Q80.09 1.64 80.92 2.26Q81.74 2.88 82.19 3.81Q82.63 4.74 82.63 5.95ZM80.07 5.95L80.07 5.95Q80.07 5.42 79.90 4.90Q79.73 4.38 79.31 3.96Q78.88 3.54 78.14 3.28Q77.40 3.02 76.26 3.02L76.26 3.02Q75.50 3.02 74.92 3.14Q74.33 3.26 73.91 3.47Q73.49 3.68 73.20 3.97Q72.91 4.25 72.74 4.58Q72.57 4.90 72.50 5.25Q72.43 5.61 72.43 5.95L72.43 5.95Q72.43 6.30 72.50 6.65Q72.57 7.01 72.74 7.33Q72.91 7.66 73.20 7.94Q73.49 8.22 73.91 8.43Q74.33 8.63 74.92 8.75Q75.50 8.87 76.26 8.87L76.26 8.87Q77.40 8.87 78.14 8.61Q78.88 8.35 79.31 7.94Q79.73 7.52 79.90 7.00Q80.07 6.47 80.07 5.95ZM84.90 1.24L87.44 1.24L87.44 6.54Q87.44 7.06 87.53 7.49Q87.62 7.92 87.86 8.22Q88.09 8.52 88.53 8.69Q88.96 8.86 89.65 8.86L89.65 8.86Q90.17 8.86 90.74 8.72Q91.31 8.57 91.87 8.33Q92.43 8.09 92.94 7.78Q93.45 7.47 93.85 7.14L93.85 7.14L93.85 1.24L96.38 1.24L96.38 10.64L93.85 10.64L93.85 9.35Q93.37 9.63 92.83 9.90Q92.29 10.18 91.68 10.40Q91.08 10.62 90.39 10.76Q89.71 10.90 88.95 10.90L88.95 10.90Q88.00 10.90 87.25 10.67Q86.50 10.45 85.98 10.02Q85.46 9.60 85.18 9.01Q84.90 8.41 84.90 7.67L84.90 7.67L84.90 1.24ZM110.82 5.93L110.82 5.93Q110.82 6.84 110.63 7.54Q110.43 8.24 110.07 8.76Q109.71 9.28 109.21 9.64Q108.71 10.00 108.09 10.22Q107.47 10.44 106.76 10.54Q106.05 10.64 105.28 10.64L105.28 10.64L99.32 10.64L99.32 1.24L105.27 1.24Q106.04 1.24 106.75 1.34Q107.46 1.44 108.08 1.66Q108.70 1.88 109.20 2.24Q109.71 2.60 110.07 3.12Q110.43 3.64 110.63 4.34Q110.82 5.04 110.82 5.93ZM108.27 5.93L108.27 5.93Q108.27 5.26 108.09 4.76Q107.92 4.26 107.53 3.93Q107.15 3.61 106.52 3.45Q105.90 3.29 105.01 3.29L105.01 3.29L101.86 3.29L101.86 8.59L105.01 8.59Q105.90 8.59 106.52 8.43Q107.15 8.27 107.53 7.94Q107.92 7.61 108.09 7.11Q108.27 6.61 108.27 5.93Z"></path></g><!----><!----></svg>