<svg xmlns="http://www.w3.org/2000/svg" version="1.1" xmlns:xlink="http://www.w3.org/1999/xlink" width="800" height="160" viewBox="0 0 800 160"><svg xml:space="preserve" width="560" height="112" data-version="2" data-id="lg_8nqgiv9W5w4XN1Ifaj" viewBox="0 0 747 121" x="120" y="24">
    <path d="M187.505 90.24q-6.65 0-11.88-3.27-5.23-3.28-8.28-8.92-3.05-5.64-3.05-12.65 0-7.01 3.05-12.65 3.05-5.64 8.28-8.92 5.23-3.27 11.88-3.27 6.37 0 11.6 2.59 5.23 2.59 7.96 7.05l-5.19 6.37q-1.45-2.09-3.73-3.82-2.27-1.73-4.82-2.73-2.55-1-4.91-1-4.37 0-7.78 2.14-3.42 2.14-5.42 5.87t-2 8.37q0 4.64 2.09 8.33 2.1 3.68 5.55 5.87 3.46 2.18 7.65 2.18 2.45 0 4.78-.82 2.32-.82 4.5-2.46 2.18-1.63 4.09-4l5.19 6.37q-2.91 4.09-8.32 6.73-5.42 2.64-11.24 2.64"></path>
    <rect width="42.77" height="49.68" x="-21.385" y="-24.84" fill="none" rx="0" ry="0" transform="matrix(1 0 0 1 186.18 65.9)"></rect>
    <path d="M214.715 89.33V41.56h9.37v47.77Zm4.55-58.33q-3.01 0-4.65-1.55-1.63-1.54-1.63-4.36 0-2.64 1.68-4.28 1.68-1.64 4.6-1.64 3 0 4.64 1.55 1.63 1.55 1.63 4.37 0 2.64-1.68 4.27-1.68 1.64-4.59 1.64"></path>
    <rect width="12.55" height="70.16" x="-6.275" y="-35.08" fill="none" rx="0" ry="0" transform="matrix(1 0 0 1 219.76 54.75)"></rect>
    <path d="M241.645 89.33V29.36h9.37v59.97Zm-9.92-38.67v-9.1h30.4v9.1Z"></path>
    <rect width="30.4" height="59.97" x="-15.2" y="-29.985" fill="none" rx="0" ry="0" transform="matrix(1 0 0 1 247.424 59.845)"></rect>
    <path d="M267.945 89.33V41.56h9.46v15.01l-.91-3.64q1.01-3.46 3.42-6.28 2.41-2.82 5.55-4.46 3.14-1.63 6.5-1.63 1.55 0 2.96.27t2.23.64l-2.46 10.19q-1.09-.46-2.41-.77-1.32-.32-2.59-.32-2.46 0-4.69.95-2.23.96-3.91 2.64-1.68 1.68-2.68 3.91-1.01 2.23-1.01 4.87v26.39Z"></path>
    <rect width="29.21" height="48.77" x="-14.605" y="-24.385" fill="none" rx="0" ry="0" transform="matrix(1 0 0 1 283.05 65.445)"></rect>
    <path d="M303.435 89.33V41.56h9.37v47.77Zm4.55-58.33q-3 0-4.64-1.55-1.64-1.54-1.64-4.36 0-2.64 1.69-4.28 1.68-1.64 4.59-1.64 3 0 4.64 1.55 1.64 1.55 1.64 4.37 0 2.64-1.68 4.27-1.69 1.64-4.6 1.64"></path>
    <rect width="12.56" height="70.16" x="-6.28" y="-35.08" fill="none" rx="0" ry="0" transform="matrix(1 0 0 1 308.485 54.75)"></rect>
    <path d="M344.745 90.24q-6.64 0-11.87-3.27-5.23-3.28-8.28-8.92-3.05-5.64-3.05-12.65 0-7.01 3.05-12.65 3.05-5.64 8.28-8.92 5.23-3.27 11.87-3.27 6.37 0 11.61 2.59 5.23 2.59 7.96 7.05l-5.19 6.37q-1.45-2.09-3.73-3.82-2.27-1.73-4.82-2.73-2.55-1-4.92-1-4.36 0-7.78 2.14-3.41 2.14-5.41 5.87t-2 8.37q0 4.64 2.09 8.33 2.09 3.68 5.55 5.87 3.46 2.18 7.65 2.18 2.45 0 4.77-.82 2.32-.82 4.51-2.46 2.18-1.63 4.09-4l5.19 6.37q-2.91 4.09-8.33 6.73-5.41 2.64-11.24 2.64"></path>
    <rect width="42.77" height="49.68" x="-21.385" y="-24.84" fill="none" rx="0" ry="0" transform="matrix(1 0 0 1 343.43 65.9)"></rect>
    <path d="M370.595 89.33V21.99h9.37v67.34Z"></path>
    <rect width="9.37" height="67.34" x="-4.685" y="-33.67" fill="none" rx="0" ry="0" transform="matrix(1 0 0 1 375.78 56.16)"></rect>
    <path d="M411.085 90.24q-7 0-12.51-3.23-5.5-3.23-8.69-8.82-3.18-5.6-3.18-12.79 0-7.19 3.18-12.79 3.19-5.59 8.69-8.82 5.51-3.23 12.51-3.23 6.92 0 12.43 3.23 5.5 3.23 8.69 8.82 3.18 5.6 3.18 12.79 0 7.19-3.18 12.79-3.19 5.59-8.69 8.82-5.51 3.23-12.43 3.23m0-8.55q4.28 0 7.65-2.14 3.36-2.14 5.28-5.82 1.91-3.69 1.82-8.33.09-4.73-1.82-8.42-1.92-3.68-5.28-5.78-3.37-2.09-7.65-2.09-4.27 0-7.69 2.14-3.41 2.14-5.32 5.82-1.91 3.69-1.82 8.33-.09 4.64 1.82 8.33 1.91 3.68 5.32 5.82 3.42 2.14 7.69 2.14"></path>
    <rect width="48.68" height="49.68" x="-24.34" y="-24.84" fill="none" rx="0" ry="0" transform="matrix(1 0 0 1 411.545 65.9)"></rect>
    <path d="M459.595 90.24q-5.1 0-8.88-2.36-3.77-2.37-5.82-6.65-2.05-4.27-2.05-10.19V41.56h9.38v26.93q0 6.28 2.95 9.92 2.96 3.64 8.24 3.64 2.64 0 4.82-.86 2.19-.87 3.78-2.41 1.59-1.55 2.5-3.73.91-2.19.91-4.74V41.56h9.37v47.77h-9.37V79.32l1.64-1.09q-1.09 3.37-3.69 6.1-2.59 2.73-6.14 4.32-3.55 1.59-7.64 1.59"></path>
    <rect width="41.95" height="48.68" x="-20.975" y="-24.34" fill="none" rx="0" ry="0" transform="matrix(1 0 0 1 464.32 66.4)"></rect>
    <path d="M515.105 90.24q-6.56 0-11.7-3.23t-8.14-8.82q-3-5.6-3-12.79 0-7.19 2.95-12.79 2.96-5.59 8.06-8.82 5.09-3.23 11.55-3.23 3.55 0 6.87 1.13 3.33 1.14 5.96 3.1 2.64 1.95 4.15 4.28 1.5 2.32 1.5 4.68l-2.73.18V21.99h9.37v67.34h-9.37V77.96h1.82q0 2.18-1.46 4.32t-3.87 3.96q-2.41 1.82-5.55 2.91-3.14 1.09-6.41 1.09m1.27-8.1q4.28 0 7.55-2.18 3.28-2.18 5.15-5.96 1.86-3.78 1.86-8.6t-1.86-8.6q-1.87-3.78-5.15-5.96-3.27-2.18-7.55-2.18-4.28 0-7.55 2.18-3.28 2.18-5.14 5.96-1.87 3.78-1.87 8.6t1.87 8.6q1.86 3.78 5.14 5.96 3.27 2.18 7.55 2.18"></path>
    <rect width="47.68" height="68.25" x="-23.84" y="-34.125" fill="none" rx="0" ry="0" transform="matrix(1 0 0 1 516.605 56.615)"></rect>
    <path fill="#0EA5E9" d="M553.955 90.33q-3 0-4.64-1.77-1.64-1.78-1.64-5.05 0-3 1.73-4.92 1.73-1.91 4.55-1.91 3.01 0 4.64 1.78 1.64 1.77 1.64 5.05 0 3-1.73 4.91-1.73 1.91-4.55 1.91"></path>
    <rect width="12.56" height="13.65" x="-6.28" y="-6.825" fill="none" rx="0" ry="0" transform="matrix(1 0 0 1 554.455 84.005)"></rect>
    <path d="M588.445 90.24q-6.64 0-11.87-3.27-5.24-3.28-8.28-8.92-3.05-5.64-3.05-12.65 0-7.01 3.05-12.65 3.04-5.64 8.28-8.92 5.23-3.27 11.87-3.27 6.37 0 11.61 2.59 5.23 2.59 7.96 7.05l-5.19 6.37q-1.46-2.09-3.73-3.82-2.28-1.73-4.82-2.73-2.55-1-4.92-1-4.37 0-7.78 2.14t-5.41 5.87q-2 3.73-2 8.37 0 4.64 2.09 8.33 2.09 3.68 5.55 5.87 3.46 2.18 7.64 2.18 2.46 0 4.78-.82 2.32-.82 4.51-2.46 2.18-1.63 4.09-4l5.19 6.37q-2.91 4.09-8.33 6.73-5.41 2.64-11.24 2.64"></path>
    <rect width="42.77" height="49.68" x="-21.385" y="-24.84" fill="none" rx="0" ry="0" transform="matrix(1 0 0 1 587.13 65.9)"></rect>
    <path d="M635.584 90.24q-7.01 0-12.51-3.23-5.51-3.23-8.69-8.82-3.19-5.6-3.19-12.79 0-7.19 3.19-12.79 3.18-5.59 8.69-8.82 5.5-3.23 12.51-3.23 6.92 0 12.42 3.23 5.51 3.23 8.69 8.82 3.19 5.6 3.19 12.79 0 7.19-3.19 12.79-3.18 5.59-8.69 8.82-5.5 3.23-12.42 3.23m0-8.55q4.28 0 7.64-2.14 3.37-2.14 5.28-5.82 1.91-3.69 1.82-8.33.09-4.73-1.82-8.42-1.91-3.68-5.28-5.78-3.36-2.09-7.64-2.09-4.28 0-7.69 2.14t-5.32 5.82q-1.91 3.69-1.82 8.33-.09 4.64 1.82 8.33 1.91 3.68 5.32 5.82t7.69 2.14"></path>
    <rect width="48.69" height="49.68" x="-24.345" y="-24.84" fill="none" rx="0" ry="0" transform="matrix(1 0 0 1 636.04 65.9)"></rect>
    <path d="M667.165 89.33V41.56h9.46v10.19l-1.73 1.09q.73-2.36 2.32-4.55 1.6-2.18 3.92-3.87 2.32-1.68 5-2.68 2.69-1 5.51-1 4.09 0 7.19 1.36 3.09 1.37 5.09 4.1 2 2.73 2.91 6.82l-1.45-.36.63-1.55q1.01-2.09 2.78-3.96 1.77-1.86 4.05-3.32 2.27-1.45 4.82-2.27 2.55-.82 5.01-.82 5.37 0 8.87 2.18 3.5 2.19 5.28 6.65 1.77 4.45 1.77 11.1v28.66h-9.46V61.21q0-6.09-2.32-8.96-2.32-2.87-7.24-2.87-2.54 0-4.77.87-2.23.86-3.87 2.41-1.64 1.55-2.55 3.59-.91 2.05-.91 4.51v28.57h-9.46v-28.3q0-5.64-2.41-8.64-2.42-3.01-6.97-3.01-2.54 0-4.73.87-2.18.86-3.82 2.36-1.64 1.51-2.55 3.55-.91 2.05-.91 4.42v28.75Z"></path>
    <rect width="71.43" height="48.59" x="-35.715" y="-24.295" fill="none" rx="0" ry="0" transform="matrix(1 0 0 1 703.38 65.535)"></rect>
    <path fill="#0EA5E9" d="M66.893 1.012C34.037 1.012 7.405 27.644 7.405 60.5c0 32.856 26.632 59.488 59.488 59.488 32.856 0 59.488-26.632 59.488-59.488 0-32.856-26.632-59.488-59.488-59.488m-9.965 52.602-18.359 7.02 18.36 7.28v7.406L30.611 63.88v-6.336l26.316-11.388zm7.857 26.733h-5.421L68.87 40.65h5.525zm38.388-16.467L76.83 75.35v-7.414l18.382-7.228-18.382-7.146v-7.358l26.342 11.389z"></path>
</svg></svg>