<?xml version="1.0" encoding="utf-8"?>
<!-- Generator: Adobe Illustrator 24.1.2, SVG Export Plug-In . SVG Version: 6.00 Build 0)  -->
<svg version="1.2" baseProfile="tiny-ps" id="Laag_1" xmlns="http://www.w3.org/2000/svg" xmlns:xlink="http://www.w3.org/1999/xlink"
	  viewBox="0 0 512 512" xml:space="preserve">
<title>CITRICLOUD</title>
<path fill="#0EA5E9" d="M244.5,21.8c4.9,0,16.5-0.3,21,0.3c5,0.3,15.2,1.6,20.1,3.1c1.1,0.1,2,0.4,3,0.7c15.8,4,31,10.6,44.7,19.4
	c0.3,0.2,0.1,0.1,0.4,0.2c1.2,0.9,2.2,1.5,3.4,2.3c2.4,1.4,9.1,6.8,11.1,8.8c1.2,1.1,7.6,6.7,8.3,7.7c2,1.9,3.5,3.7,5.4,5.6
	c1.7,1.8,3.3,3.6,4.9,5.4c4.2,5.3,9.7,12.9,13,18.8c1.6,2.9,3.1,5.8,4.5,8.7c0.4,0.8,2,4.3,2.4,4.8c6.4,15.9,10,27.7,12.1,45
	c0.6,5.4,0.8,13.5,1.6,18.4c3.1,0,6.1-0.1,9.2,0.1c37.7,2.6,73.4,32.3,73.3,71.9c-0.1,12.2-2.3,23.2-8.1,34.1
	c-1.9,3.6-4.2,7.6-7,10.5c-5.1-3.8-9.6-8.9-15-12.6c-0.8-0.6-3.8-2.7-4.3-3.3c-18.9-12-26.7-15.4-48.6-20.7
	c-3.9-0.8-8.7-1.3-12.7-1.8c-34.8-3.6-69.6,6.7-96.8,28.6c-5.1,4.2-9.9,8.7-14.3,13.5c-5,5.5-5.3,10.1-10.9,1.8
	c-3.2-3.8-8.5-9-12.3-12.4c-5.9-4.7-11.8-9.5-18.4-13.3c-1.6-0.9-3.1-1.8-4.7-2.8c-0.8-0.3-2.6-1.2-3.4-1.6
	c-11.4-6.5-22.4-8.8-34.9-12.1c-4-0.8-8.7-1.3-12.8-1.8c-8-0.8-16.6-0.6-24.6,0.1c-2.1,0.2-4.1,0.4-6.2,0.5c-0.8,0.4-4.1,0.8-5.2,1
	c-4.1,0.8-8,1.6-12,2.7c-4.9,1.4-9.8,3-14.6,4.9c-2.7,1.1-5.3,2.4-7.9,3.4c-2.4,1.2-8.6,4.7-10.9,5l-0.4-0.2c-0.3-1.3,0.1-3,0.4-4.4
	c0.3-10,7-25,12.4-33.3c11.8-18,30.4-30.5,51.5-34.7c11.3-1.5,27.6-2.3,38.4,1.6c4.5,0.6,12.4,4.5,16.4,6.7c1.8,1,4.5,2.7,6.3,3.4
	c1.1,1,3.8,2.8,5.1,3.8c2.3,1.8,3.6,2.9,5.7,5c-1.3-2.8-2.4-5.6-3.9-8.4c-5.2-9.8-11.5-17.2-20.2-24c-11.3-7.9-20-11.6-33.6-14.8
	c-3.8-0.9-8.7-1.2-12.2-2.1l-0.2-0.1l-0.4,0.2c-5.2-0.7-14.1-0.9-19.4-0.7c-28.8,0.5-56.7,10.1-79.7,27.3
	c-9.8,7.5-18.7,16.3-26.3,26c-1.9,2.4-6.5,9.5-7.9,11c-0.7-0.7-0.5-7.5-0.4-8.8c0.6-11.4,3.8-22.5,7.6-33.2
	c8.9-20.9,23.6-39.5,44.4-49.5c3.2-2.1,10.8-5.1,14.4-6.3l2.5-0.9c3-1.1,10.5-2.7,13.9-3.5c1.2-4.8,3-9.5,4.8-14.2
	c7.3-18.8,18.4-35.8,32.7-49.9c4.6-4.5,10.9-9.4,16-13.4c2.1-1,4.7-2.9,6.6-4.2c8-5.4,16.8-9.6,25.7-13.4c4-1.7,8.5-2.8,12.6-4.4
	C221.2,24.6,233,21.8,244.5,21.8z"/>
<path fill="#0EA5E9" d="M265.4,22.1c5,0.3,15.2,1.6,20.1,3.1c1.1,0.1,2,0.4,3,0.7c15.8,4,31,10.6,44.7,19.4c0.3,0.2,0.1,0.1,0.4,0.2
	c1.2,0.9,2.2,1.5,3.4,2.3c-2.3,0-11.5-7.8-14-7.6l0.4,0.5c-0.3,0.2-4.2-1.9-4.9-2.3c-11.1-5.7-22.2-9.1-34.3-12.1
	c-4.1-0.6-8.3-1.9-12.5-2.5c-2.8-0.4-8.2-0.3-10.7-0.9v-0.2h-0.9v-0.2C261.8,22.3,263.6,22.2,265.4,22.1z"/>
<path fill="#0EA5E9" d="M387,249.2c1-0.2,2.2-0.2,3-0.5h-0.7c3.1-0.2,7.1,0.3,10,1.4c3.3,0.2,6,1,9.2,1.8c12.1,3.1,23.6,8.1,34,14.9
	c1.5,1,5.9,3.2,5.8,5c-18.9-12-26.7-15.4-48.6-20.7C395.8,250.2,391,249.7,387,249.2z"/>
<path fill="#0EA5E9" d="M178.6,249.2c1.7-0.5,2,0,3.1-0.5h-1.8c2.7-0.5,8.7,0.4,11.2,1.4c8.9,0.5,30.9,8.2,38.3,13.2
	c0.1,0.6,0.2,0.8,0.4,1.4c-0.8-0.3-2.6-1.2-3.4-1.6c-11.4-6.5-22.4-8.8-34.9-12.1C187.4,250.2,182.7,249.7,178.6,249.2z"/>
<path fill="#0EA5E9" d="M163,165.4c10-2,39.6,8.2,46.1,16.2c0,0.5,0,0.3-0.1,0.7c-11.3-7.9-20-11.6-33.6-14.8
	c-3.8-0.9-8.7-1.2-12.2-2.1L163,165.4z"/>
<path fill="#0EA5E9" d="M105,261.9c11.4-6.4,26.8-10.7,39.7-12.7l0.2,0.2c-1.1,0.2-1.3,0.3-2.3,0.7c1.3,0.4,4-1.1,5.1-0.3
	c-0.8,0.4-4.1,0.8-5.2,1c-4.1,0.8-8,1.6-12,2.7c-4.9,1.4-9.8,3-14.6,4.9c-2.7,1.1-5.3,2.4-7.9,3.4
	C106.6,261.1,107.2,262.4,105,261.9z"/>
<path fill="#0EA5E9" d="M229.3,263.3c8.8,4.7,16.9,10.4,24.3,17c3.4,2.7,10.4,8.6,11.4,12.8c-3.2-3.8-8.5-9-12.3-12.4
	c-5.9-4.7-11.8-9.5-18.4-13.3c-1.6-0.9-3.1-1.8-4.7-2.8C229.5,264.1,229.5,263.9,229.3,263.3z"/>
<path fill="#0EA5E9" d="M161.1,194.1c11.3-1.5,27.6-2.3,38.4,1.6c-1.6,0.2-4.1-0.7-5.8-1c-3.2-0.6-4.7-1-7.9-0.9
	c0.5,0.3,4.5,0.9,5.4,1c-0.3,0.1-7-0.5-7.8-0.6c-6.8-0.6-12.6,0.2-19.2,0.7l-0.1-0.2c2-0.1,3.9-0.8,5.9-0.8
	C167.5,192.9,164,195,161.1,194.1z"/>
<path fill="#0EA5E9" d="M348.1,56.5c1.2,1.1,7.6,6.7,8.3,7.7c2,1.9,3.5,3.7,5.4,5.6l-0.8,0.8c-1.7-1.8-3.5-3.7-5.2-5.5
	C353.9,63.1,348.5,59,348.1,56.5z"/>
<path fill="#0EA5E9" d="M105,261.9c2.2,0.5,1.6-0.8,3-0.1c-2.4,1.2-8.6,4.7-10.9,5l-0.4-0.2c-0.3-1.3,0.1-3,0.4-4.4l0.2,2.9
	c1.3,0.4,5.8-2.4,7.5-3.1L105,261.9z"/>
<path fill="#0EA5E9" d="M244.5,21.8c4.9,0,16.5-0.3,21,0.3c-1.8,0.1-3.6,0.2-5.4,0.4v0.2h0.9v0.2c-4.9-0.1-10.3-0.2-15.2-0.4
	C245.5,22.5,244.8,22,244.5,21.8z"/>
<path fill="#0EA5E9" d="M80.9,137.7c3.2-2.1,10.8-5.1,14.4-6.3c-1.4,1.6-4.4,1.8-5.7,2.8c1.8-0.4,2.5-1,4.3-1.2l0.1,0.2
	c-3.9,1-7.8,3.8-11.7,4.9C82,138.1,81.2,137.8,80.9,137.7z"/>
<path fill="#0EA5E9" d="M361.8,69.8c1.7,1.8,3.3,3.6,4.9,5.4l-0.5,0.5c-1.1-0.3-3.9-4-5.2-5.2L361.8,69.8z"/>
<path d="M359.1,272c9.9-1.1,21.1-1.6,30.9,0.2c5.6,0.8,10,1.8,15.4,3.5c2.1,0.7,8.3,2.7,9.9,3.7c2.8,0.9,15.5,7.2,16.9,9
	c9.8,5.2,26.2,21.4,32.7,31.1c0.1,0.1,0.3,1,0.1,1.1c-12.6,8.8-25.9,17-38.7,25.6c-1.1,0.7-2.6,1.3-3.5,1.7c-1.8-1.4-5.2-6-7.2-8.2
	l-0.6-0.6c-6.1-5.4-10.8-8.9-18.4-12.2c0.1-1,0.2-0.6-0.3-1.3c-0.9-0.3-1.3-0.5-2.1-1.1c-3.4-2.2-10.4-2.8-14.5-2.3
	c-4.2-0.1-11.5-0.3-15.5,0.4c-12.2,2.5-20.6,6-30.1,14.6c-22.8,20.6-25.1,57.9-3.6,80.6c0.7,0.8,4.3,4.2,4.6,4.7
	c7.8,6.1,13,9.3,22.5,12.4c2.4,0.4,4.7,1.1,7.1,1.5c18.6,3,35.1-3.4,48.7-16c2.3-2.3,5.7-6.2,7.2-8.9c3-3.7,5.7-0.1,8.7,1.9
	l20.6,13.8c4.6,3.1,9.8,6.7,14.6,9.4c0.1,2.2-2.8,5.7-4.2,7.5c-17.1,22.2-42.2,38.4-70.1,42.4c-30.6,4.4-58.4-2.1-83-21
	c-22.2-17.3-36.8-42.7-40.6-70.6c-3.9-30.7,3.6-58.3,22.4-82.7c3.8-5,8.9-9.9,13.5-14.2c1.5-1.4,3.8-3,5.1-4.3
	c12.7-9,24.7-15.7,40-19.3C350.6,273.3,356.2,272.3,359.1,272z"/>
<path d="M347.8,274.1c-0.5,0.5-1,1-1.4,1.6c-42.3,12.3-72.1,45.6-78.6,89c-0.4,2.8-1.2,5.8-1.5,8.7c-0.3,12.4,1.5,24.6,5,36.4
	c7.9,27.3,26.4,50.3,51.3,63.9c24.6,13.2,53.4,16.2,80.2,8.4c24.4-7.2,43.7-21.8,58.7-42.1c0.7-1,1.6-1.9,2.4-2.8l0.6-0.8
	c0.1,2.2-2.8,5.7-4.2,7.5c-17.1,22.2-42.2,38.4-70.1,42.4c-30.6,4.4-58.4-2.1-83-21c-22.2-17.3-36.8-42.7-40.6-70.6
	c-3.9-30.7,3.6-58.3,22.4-82.7c3.8-5,8.9-9.9,13.5-14.2c1.5-1.4,3.8-3,5.1-4.3C320.4,284.5,332.5,277.8,347.8,274.1z"/>
<path d="M330.6,417.8c-0.3,0.5-0.1,0.3-0.7,0.5c-1.1-0.4-3.1-3-3.9-4c-25.4-33-7.4-82.9,33.3-92.1c1.8-0.4,3.5-1,4.9,0.4
	c-12.2,2.5-20.6,6-30.1,14.6C311.4,357.8,309.1,395.1,330.6,417.8z"/>
<path d="M432.3,288.5c9.8,5.2,26.2,21.4,32.7,31.1c0.1,0.1,0.3,1,0.1,1.1c-12.6,8.8-25.9,17-38.7,25.6c-1.1,0.7-2.6,1.3-3.5,1.7
	c-1.8-1.4-5.2-6-7.2-8.2c2.4,0,5.8,4.8,7.5,6.6c3.9-1.8,11.8-7.4,15.8-10c8.3-5.4,16.6-10.9,24.9-16.4
	c-9.3-12.6-19.1-21.3-31.8-30.3L432.3,288.5z"/>
<path d="M420.7,411.4c0.3,0.5,0.7,0.9,0.5,1.5c-1.3,3-5.1,6.6-7.4,8.8c-10,10.3-23.7,16.2-38.1,16.4c-2.5,0-9.2,0.2-10.8-1.7
	c18.6,3,35.1-3.4,48.7-16C415.8,418.1,419.2,414.1,420.7,411.4z"/>
<path fill="#181819" d="M429.4,413.3l20.6,13.8c4.6,3.1,9.8,6.7,14.6,9.4l-0.6,0.8c-0.4-0.3-1.3-0.6-2-1
	c-6.5-4.1-12.8-8.2-19.1-12.5c-4.1-2.8-8.8-5.5-12.6-8.7C429.5,414.4,429.6,414.2,429.4,413.3z"/>
<path d="M394.3,324.5c4.4,1,20.8,10.2,20.7,14.6c-6.1-5.4-10.8-8.9-18.4-12.2c0.1-1,0.2-0.6-0.3-1.3
	C395.5,325.3,395.1,325.1,394.3,324.5z"/>
<path d="M359.1,272c9.9-1.1,21.1-1.6,30.9,0.2c-8.5,0.1-16.9,0-25.3,0.2C362.9,272.6,360.8,272.3,359.1,272z"/>
<path fill="#181819" d="M335.2,422.5c7.8,6.1,13,9.3,22.5,12.4C352.8,435.4,335.8,427.5,335.2,422.5z"/>
<path fill="#181819" d="M415.4,279.5c2.8,0.9,15.5,7.2,16.9,9l-0.2,1.1c-0.8-0.4-2.2-1.3-2.9-1.8c-3.7-2.4-7.7-4.2-11.6-6.2
	C417,280.9,416,280.1,415.4,279.5z"/>
<path fill="#181819" d="M405.4,275.8c2.1,0.7,8.3,2.7,9.9,3.7c0.7,0.6,1.7,1.5,2.2,2.2c-2.3-0.8-5.5-2.1-7.6-3.3l1.6,0.6
	C409.4,277.8,406.8,277.3,405.4,275.8z"/>
<path d="M152.6,272c9.6-1.3,19.3-1.3,28.9,0c9.5,0.7,30.1,6.9,37.7,12.5c14.3,7.4,30.3,22.4,39.1,35.9c-2.1,1.8-13,8.8-16.1,10.8
	c-7.3,4.5-15.7,10.8-22.9,15c-1,0.6-2.1,1.1-3.3,1.5c-9.1-12.7-19-19.7-34.1-24c-0.8,0-4.7-0.9-5.7-1.1c-3.6-0.7-10.4-0.4-14.3-0.3
	c-16.5,2.5-29.9,9.7-39.9,23.3c-9.2,12.4-13,27.9-10.6,43.1c2.3,14.5,10.2,27.5,22,36.2c1.7,1.3,3.4,2.4,5.2,3.6
	c7.3,4.4,14.1,6.7,22.6,7.9c16.9,2.1,33.9-3.9,46.2-15.6c3.1-3.1,5.5-6.2,8.2-9.6c0.7-0.9,2.3-1.1,3.3-0.5c3.7,2.4,7.3,5,11,7.5
	c4.5,3.1,9.1,6,13.6,9.1c1.4,0.9,6,3.8,7,4.8c2.3,1.5,4.9,3.1,7.1,4.7c0.7,0.4,0.8,0.4,1.2,1.1c0.1,2.7-6.2,9.5-8.1,11.6
	c-13.9,15.9-31.9,27.6-52,33.8c-26.3,7.8-56.2,5.4-80.4-7.8c-25.4-13.4-44.4-36.5-52.7-63.9c-8.5-28.2-5.5-58.5,8.4-84.5
	c13.2-24.1,36.1-43.8,62.6-51.5c2.3-0.7,4.2-1.2,6.5-1.8c0.9-0.3,3.2-0.7,4.3-0.9C149.1,272.5,150.7,272.3,152.6,272z"/>
<path d="M136.4,275.6c-2.2,2.1-6.3,1.9-8.5,4.2c-4.9,2.3-10.1,4.9-14.7,7.7c-21,13-36.9,32.7-45.2,55.9c-9.5,27.3-7.8,57.3,4.9,83.3
	c12.2,25.4,34,44.9,60.6,54.1c26,9.2,55.6,6.8,80.4-5.1c13.5-6.5,25.6-15.7,35.4-27c2.6-2.9,6.1-7.8,8.3-10.1l-0.1-1.7
	c0.7,0.4,0.8,0.4,1.2,1.1c0.1,2.7-6.2,9.5-8.1,11.6c-13.9,15.9-31.9,27.6-52,33.8c-26.3,7.8-56.2,5.4-80.4-7.8
	c-25.4-13.4-44.4-36.5-52.7-63.9c-8.5-28.2-5.5-58.5,8.4-84.5C87,303,109.9,283.3,136.4,275.6z"/>
<path d="M219.2,284.5c14.3,7.4,30.3,22.4,39.1,35.9c-2.1,1.8-13,8.8-16.1,10.8c-7.3,4.5-15.7,10.8-22.9,15c-1,0.6-2.1,1.1-3.3,1.5
	c-9.1-12.7-19-19.7-34.1-24c-0.8,0-4.7-0.9-5.7-1.1c2.4-1.2,6.3-0.5,8.6,0.5c12.5,3.2,24.2,12.5,31.7,22.8
	c3.3-1.4,12.9-7.9,16.5-10.4c7.2-5,16.6-10.4,23.3-15.7c-2.7-3.9-10.1-13-13.5-16.2c-4.4-4.1-9.1-8-14-11.6
	C226.7,290.6,220,286.5,219.2,284.5z"/>
<path d="M138.6,428.5c-2.7,0.6-5.8-2.3-7.8-3.9c-7.8-6.3-13.9-14.6-17.6-23.9c-3.2-8.3-3.3-12.2-3.3-20.9c0-9.5,0.2-14.2,4.2-23.3
	c6.7-15.1,17.9-26.2,33.4-32.1c3.7-1.2,8.4-3.3,12.3-2.4c1,0.2,0.8,0.3,2,0.3c-16.5,2.5-29.9,9.7-39.9,23.3
	c-9.2,12.4-13,27.9-10.6,43.1c2.3,14.5,10.2,27.5,22,36.2C135.1,426.2,136.7,427.3,138.6,428.5z"/>
<path d="M207.3,420.8l0.6,1c-10.6,10.9-27.7,16.8-42.7,16c-1.4-0.1-3-0.5-4-1.4C178,438.5,195,432.5,207.3,420.8z"/>
<path fill="#181819" d="M207.3,420.8c3.1-3.1,5.5-6.2,8.2-9.6c0.7-0.9,2.3-1.1,3.3-0.5c3.7,2.4,7.3,5,11,7.5
	c0.4,0.6,0.9,1.6,1.2,2.2c-3-2-6-4.1-8.9-6.2c-1.7-1.2-3-1.8-4.5-3.2l-0.2-0.2c-2.4,3.2-6.4,8.6-9.5,11L207.3,420.8z"/>
<path d="M152.6,272c9.6-1.3,19.3-1.3,28.9,0c-2.1,0.1-4,0.5-6.4,0.5C167.5,272.6,160.2,272.5,152.6,272z"/>
<path fill="#181819" d="M229.8,418.3c4.5,3.1,9.1,6,13.6,9.1c-0.4,0.4-0.6,0.5-0.7,0.9c-3.3-2.5-8.7-5.4-11.6-7.9
	C230.6,419.9,230.1,418.9,229.8,418.3z"/>
<path fill="#181819" d="M147.2,272.9c-1.4,1.6-4.9,2.5-7,2.8c-2.6,0.8-5.1,1.6-7.7,2.4c-1.5,0.5-3.3,1.3-4.7,1.7
	c2.2-2.3,6.3-2.1,8.5-4.2c2.3-0.7,4.2-1.2,6.5-1.8C143.9,273.5,146.2,273.1,147.2,272.9z"/>
<path fill="#181819" d="M250.4,432.2c2.3,1.5,4.9,3.1,7.1,4.7l0.1,1.7c-1.5-1.3-6.4-4.4-8.3-5.6L250.4,432.2z"/>
<path d="M243.3,427.4c1.4,0.9,6,3.8,7,4.8l-1,0.7c-1.6-1.3-4.7-3-6.7-4.6C242.8,427.9,243,427.8,243.3,427.4z"/>
<image width="18" height="6" xlink:href="B61BCDB0.png"  transform="matrix(1 0 0 1 379 321)">
</image>
</svg>
